<svg height="504pt" viewBox="0 -95 504 504" width="504pt" xmlns="http://www.w3.org/2000/svg"><path d="m387.28125 311.6875h-270.5625v-214.871094l135.28125-92.816406 135.28125 92.816406zm0 0" fill="#7bac51"/><path d="m70.335938 124.082031c0 9.527344-7.726563 17.25-17.25 17.25-9.527344 0-17.25-7.722656-17.25-17.25 0-9.527343 7.722656-17.25 17.25-17.25 9.523437 0 17.25 7.722657 17.25 17.25zm0 0" fill="#fcc24c"/><path d="m25.199219 187.425781c-9.269531-2.1875-18.5625 3.554688-20.75 12.824219-2.191407 9.273438 3.550781 18.5625 12.824219 20.753906 9.269531 2.1875 18.5625-3.554687 20.75-12.824218 2.191406-9.273438-3.550782-18.5625-12.824219-20.753907zm0 0" fill="#fcc24c"/><path d="m57.03125 267.546875c-9.273438-2.1875-18.5625 3.554687-20.75 12.824219-2.191406 9.273437 3.550781 18.5625 12.820312 20.753906 9.273438 2.1875 18.5625-3.554688 20.753907-12.824219 2.1875-9.273437-3.550781-18.5625-12.824219-20.753906zm0 0" fill="#fcc24c"/><path d="m468.164062 124.082031c0 9.527344-7.722656 17.25-17.25 17.25-9.523437 0-17.25-7.722656-17.25-17.25 0-9.527343 7.726563-17.25 17.25-17.25 9.527344 0 17.25 7.722657 17.25 17.25zm0 0" fill="#fcc24c"/><path d="m499.496094 200.050781c-2.277344-9.25-11.621094-14.90625-20.871094-12.628906s-14.90625 11.621094-12.628906 20.875c2.277344 9.25 11.621094 14.902344 20.875 12.625 9.25-2.277344 14.902344-11.621094 12.625-20.871094zm0 0" fill="#fcc24c"/><path d="m467.707031 280.410156c-2.15625-9.277344-11.429687-15.050781-20.707031-12.894531-9.28125 2.160156-15.054688 11.429687-12.894531 20.710937 2.15625 9.277344 11.429687 15.050782 20.707031 12.894532 9.28125-2.160156 15.054688-11.429688 12.894531-20.710938zm0 0" fill="#fcc24c"/><path d="m368.714844 84.082031v227.605469h18.566406v-214.871094zm0 0" fill="#5d8e33"/><path d="m135.285156 84.082031v227.605469h-18.566406v-214.871094zm0 0" fill="#99ca6f"/><path d="m349.957031 183.917969h-195.914062c-2.800781 0-5.070313-2.269531-5.070313-5.070313v-53.742187c0-2.800781 2.269532-5.070313 5.070313-5.070313h195.914062c2.800781 0 5.070313 2.269532 5.070313 5.070313v53.742187c0 2.800782-2.269532 5.070313-5.070313 5.070313zm0 0" fill="#f4efed"/><path d="m322.320312 161.609375h-94.507812c-5.878906 0-10.648438-4.765625-10.648438-10.648437 0-5.882813 4.769532-10.648438 10.648438-10.648438h94.507812c5.882813 0 10.648438 4.765625 10.648438 10.648438 0 5.882812-4.765625 10.648437-10.648438 10.648437zm0 0" fill="#7bac51"/><path d="m349.957031 187.917969h-195.914062c-5 0-9.070313-4.070313-9.070313-9.070313v-53.746094c0-5 4.070313-9.070312 9.070313-9.070312h195.914062c5 0 9.070313 4.070312 9.070313 9.070312v53.746094c0 5-4.070313 9.070313-9.070313 9.070313zm-195.914062-63.886719c-.589844 0-1.070313.480469-1.070313 1.070312v53.746094c0 .589844.480469 1.070313 1.070313 1.070313h195.914062c.589844 0 1.070313-.480469 1.070313-1.070313v-53.746094c0-.589843-.480469-1.070312-1.070313-1.070312zm0 0" fill="#690589"/><path d="m322.320312 165.609375h-94.511718c-8.074219 0-14.644532-6.574219-14.644532-14.648437 0-8.078126 6.570313-14.648438 14.644532-14.648438h94.511718c8.078126 0 14.648438 6.570312 14.648438 14.648438 0 8.074218-6.570312 14.648437-14.648438 14.648437zm-94.511718-21.296875c-3.664063 0-6.644532 2.984375-6.644532 6.648438 0 3.667968 2.980469 6.648437 6.644532 6.648437h94.511718c3.667969 0 6.648438-2.980469 6.648438-6.648437 0-3.664063-2.980469-6.648438-6.648438-6.648438zm0 0" fill="#690589"/><path d="m192.324219 150.960938c0 5.882812-4.765625 10.648437-10.644531 10.648437-5.882813 0-10.648438-4.765625-10.648438-10.648437 0-5.882813 4.765625-10.648438 10.648438-10.648438 5.878906 0 10.644531 4.765625 10.644531 10.648438zm0 0" fill="#ff4397"/><path d="m181.679688 165.609375c-8.078126 0-14.648438-6.574219-14.648438-14.648437 0-8.078126 6.570312-14.648438 14.648438-14.648438 8.074218 0 14.644531 6.570312 14.644531 14.648438 0 8.074218-6.570313 14.648437-14.644531 14.648437zm0-21.296875c-3.667969 0-6.648438 2.984375-6.648438 6.648438 0 3.667968 2.980469 6.648437 6.648438 6.648437 3.664062 0 6.644531-2.980469 6.644531-6.648437 0-3.664063-2.980469-6.648438-6.644531-6.648438zm0 0" fill="#690589"/><path d="m349.957031 247.800781h-195.914062c-2.800781 0-5.070313-2.269531-5.070313-5.070312v-53.742188c0-2.800781 2.269532-5.070312 5.070313-5.070312h195.914062c2.800781 0 5.070313 2.269531 5.070313 5.070312v53.742188c0 2.800781-2.269532 5.070312-5.070313 5.070312zm0 0" fill="#f4efed"/><path d="m322.320312 225.492188h-94.507812c-5.878906 0-10.648438-4.765626-10.648438-10.644532 0-5.882812 4.769532-10.648437 10.648438-10.648437h94.507812c5.882813 0 10.648438 4.765625 10.648438 10.648437 0 5.878906-4.765625 10.644532-10.648438 10.644532zm0 0" fill="#7bac51"/><path d="m349.957031 251.800781h-195.914062c-5 0-9.070313-4.070312-9.070313-9.070312v-53.746094c0-5 4.070313-9.070313 9.070313-9.070313h195.914062c5 0 9.070313 4.070313 9.070313 9.070313v53.746094c0 5.003906-4.070313 9.070312-9.070313 9.070312zm-195.914062-63.882812c-.589844 0-1.070313.480469-1.070313 1.070312v53.746094c0 .589844.480469 1.070313 1.070313 1.070313h195.914062c.589844 0 1.070313-.480469 1.070313-1.070313v-53.746094c0-.589843-.480469-1.070312-1.070313-1.070312zm0 0" fill="#690589"/><path d="m322.320312 229.492188h-94.511718c-8.074219 0-14.644532-6.570313-14.644532-14.644532 0-8.078125 6.570313-14.648437 14.644532-14.648437h94.511718c8.078126 0 14.648438 6.570312 14.648438 14.648437 0 8.074219-6.570312 14.644532-14.648438 14.644532zm-94.511718-21.292969c-3.664063 0-6.644532 2.980469-6.644532 6.648437 0 3.664063 2.980469 6.644532 6.644532 6.644532h94.511718c3.667969 0 6.648438-2.980469 6.648438-6.644532 0-3.667968-2.980469-6.648437-6.648438-6.648437zm0 0" fill="#690589"/><path d="m192.324219 214.847656c0 5.878906-4.765625 10.644532-10.644531 10.644532-5.882813 0-10.648438-4.765626-10.648438-10.644532 0-5.882812 4.765625-10.648437 10.648438-10.648437 5.878906 0 10.644531 4.765625 10.644531 10.648437zm0 0" fill="#ff4397"/><path d="m181.679688 229.492188c-8.078126 0-14.648438-6.570313-14.648438-14.644532 0-8.078125 6.570312-14.648437 14.648438-14.648437 8.074218 0 14.644531 6.570312 14.644531 14.648437 0 8.074219-6.570313 14.644532-14.644531 14.644532zm0-21.292969c-3.667969 0-6.648438 2.980469-6.648438 6.648437 0 3.664063 2.980469 6.644532 6.648438 6.644532 3.664062 0 6.644531-2.980469 6.644531-6.644532 0-3.667968-2.980469-6.648437-6.644531-6.648437zm0 0" fill="#690589"/><path d="m349.957031 311.6875h-195.914062c-2.800781 0-5.070313-2.269531-5.070313-5.070312v-53.742188c0-2.800781 2.269532-5.070312 5.070313-5.070312h195.914062c2.800781 0 5.070313 2.269531 5.070313 5.070312v53.742188c0 2.800781-2.269532 5.070312-5.070313 5.070312zm0 0" fill="#f4efed"/><path d="m322.320312 289.378906h-94.507812c-5.878906 0-10.648438-4.765625-10.648438-10.648437 0-5.878907 4.769532-10.648438 10.648438-10.648438h94.507812c5.882813 0 10.648438 4.765625 10.648438 10.648438 0 5.882812-4.765625 10.648437-10.648438 10.648437zm0 0" fill="#7bac51"/><path d="m349.957031 315.6875h-195.914062c-5 0-9.070313-4.070312-9.070313-9.070312v-53.742188c0-5 4.070313-9.070312 9.070313-9.070312h195.914062c5 0 9.070313 4.070312 9.070313 9.070312v53.742188c0 5-4.070313 9.070312-9.070313 9.070312zm-195.914062-63.886719c-.589844 0-1.070313.480469-1.070313 1.070313v53.746094c0 .589843.480469 1.070312 1.070313 1.070312h195.914062c.589844 0 1.070313-.480469 1.070313-1.070312v-53.746094c0-.589844-.480469-1.070313-1.070313-1.070313zm0 0" fill="#690589"/><path d="m322.320312 293.378906h-94.511718c-8.074219 0-14.644532-6.574218-14.644532-14.648437 0-8.078125 6.570313-14.648438 14.644532-14.648438h94.511718c8.078126 0 14.648438 6.570313 14.648438 14.648438 0 8.074219-6.570312 14.648437-14.648438 14.648437zm-94.511718-21.292968c-3.664063 0-6.644532 2.980468-6.644532 6.644531 0 3.667969 2.980469 6.648437 6.644532 6.648437h94.511718c3.667969 0 6.648438-2.980468 6.648438-6.648437 0-3.664063-2.980469-6.644531-6.648438-6.644531zm0 0" fill="#690589"/><path d="m192.324219 278.730469c0 5.882812-4.765625 10.648437-10.644531 10.648437-5.882813 0-10.648438-4.765625-10.648438-10.648437 0-5.878907 4.765625-10.644531 10.648438-10.644531 5.878906 0 10.644531 4.765624 10.644531 10.644531zm0 0" fill="#ff4397"/><g fill="#690589"><path d="m181.679688 293.378906c-8.078126 0-14.648438-6.574218-14.648438-14.648437 0-8.078125 6.570312-14.648438 14.648438-14.648438 8.074218 0 14.644531 6.570313 14.644531 14.648438 0 8.074219-6.570313 14.648437-14.644531 14.648437zm0-21.292968c-3.667969 0-6.648438 2.980468-6.648438 6.644531 0 3.667969 2.980469 6.648437 6.648438 6.648437 3.664062 0 6.644531-2.980468 6.644531-6.648437 0-3.664063-2.980469-6.644531-6.644531-6.644531zm0 0"/><path d="m387.28125 315.6875h-270.5625c-2.207031 0-4-1.792969-4-4v-214.871094c0-1.316406.652344-2.550781 1.738281-3.296875l135.28125-92.816406c1.363281-.9375 3.160157-.9375 4.527344 0l135.277344 92.816406c1.089843.746094 1.738281 1.980469 1.738281 3.296875v214.871094c0 2.207031-1.792969 4-4 4zm-266.5625-8h262.5625v-208.761719l-131.28125-90.074219-131.28125 90.074219zm0 0"/><path d="m131.570312 141.714844c-2.207031 0-4-1.792969-4-4v-24c0-2.207032 1.792969-4 4-4 2.207032 0 4 1.792968 4 4v24c0 2.207031-1.789062 4-4 4zm0 0"/><path d="m53.085938 145.335938c-11.71875 0-21.25-9.535157-21.25-21.25 0-11.71875 9.53125-21.25 21.25-21.25 11.714843 0 21.25 9.53125 21.25 21.25 0 11.714843-9.535157 21.25-21.25 21.25zm0-34.503907c-7.308594 0-13.25 5.945313-13.25 13.25 0 7.304688 5.941406 13.25 13.25 13.25 7.304687 0 13.25-5.945312 13.25-13.25 0-7.304687-5.945313-13.25-13.25-13.25zm0 0"/><path d="m21.25 225.449219c-11.714844 0-21.25-9.535157-21.25-21.25 0-11.71875 9.535156-21.25 21.25-21.25s21.25 9.53125 21.25 21.25c0 11.714843-9.53125 21.25-21.25 21.25zm0-34.5c-7.304688 0-13.25 5.941406-13.25 13.25 0 7.304687 5.945312 13.25 13.25 13.25s13.25-5.945313 13.25-13.25c0-7.308594-5.945312-13.25-13.25-13.25zm0 0"/><path d="m53.085938 305.566406c-11.71875 0-21.25-9.535156-21.25-21.25s9.53125-21.25 21.25-21.25c11.714843 0 21.25 9.535156 21.25 21.25s-9.535157 21.25-21.25 21.25zm0-34.503906c-7.308594 0-13.25 5.945312-13.25 13.25 0 7.308594 5.941406 13.25 13.25 13.25 7.304687 0 13.25-5.941406 13.25-13.25 0-7.304688-5.945313-13.25-13.25-13.25zm0 0"/><path d="m91.320312 288.3125h-20.984374c-2.210938 0-4-1.789062-4-4 0-2.207031 1.789062-4 4-4h16.980468v-152.230469h-16.980468c-2.210938 0-4-1.792969-4-4s1.789062-4 4-4h20.984374c2.207032 0 4 1.792969 4 4v160.230469c0 2.210938-1.792968 4-4 4zm0 0"/><path d="m116.71875 208.199219h-78.21875c-2.207031 0-4-1.792969-4-4 0-2.210938 1.792969-4 4-4h78.21875c2.210938 0 4 1.789062 4 4 0 2.207031-1.789062 4-4 4zm0 0"/><path d="m450.914062 145.335938c-11.714843 0-21.25-9.535157-21.25-21.25 0-11.71875 9.535157-21.25 21.25-21.25 11.71875 0 21.25 9.53125 21.25 21.25 0 11.714843-9.53125 21.25-21.25 21.25zm0-34.503907c-7.304687 0-13.25 5.945313-13.25 13.25 0 7.304688 5.945313 13.25 13.25 13.25 7.308594 0 13.25-5.945312 13.25-13.25 0-7.304687-5.941406-13.25-13.25-13.25zm0 0"/><path d="m482.75 225.449219c-11.714844 0-21.25-9.535157-21.25-21.25 0-11.714844 9.535156-21.25 21.25-21.25 11.71875 0 21.25 9.535156 21.25 21.25 0 11.714843-9.535156 21.25-21.25 21.25zm0-34.5c-7.304688 0-13.25 5.941406-13.25 13.25 0 7.304687 5.945312 13.25 13.25 13.25s13.25-5.945313 13.25-13.25c0-7.308594-5.945312-13.25-13.25-13.25zm0 0"/><path d="m450.914062 305.566406c-11.714843 0-21.25-9.535156-21.25-21.25s9.535157-21.25 21.25-21.25c11.71875 0 21.25 9.535156 21.25 21.25s-9.53125 21.25-21.25 21.25zm0-34.503906c-7.304687 0-13.25 5.945312-13.25 13.25 0 7.308594 5.945313 13.25 13.25 13.25 7.308594 0 13.25-5.941406 13.25-13.25 0-7.304688-5.941406-13.25-13.25-13.25zm0 0"/><path d="m433.664062 288.3125h-20.984374c-2.207032 0-4-1.789062-4-4v-160.230469c0-2.207031 1.792968-4 4-4h20.984374c2.207032 0 4 1.792969 4 4s-1.792968 4-4 4h-16.984374v152.230469h16.984374c2.207032 0 4 1.792969 4 4 0 2.210938-1.789062 4-4 4zm0 0"/><path d="m465.5 208.199219h-78.21875c-2.210938 0-4-1.792969-4-4 0-2.210938 1.789062-4 4-4h78.214844c2.210937 0 4 1.789062 4 4 0 2.207031-1.789063 4-3.996094 4zm0 0"/></g></svg>